<?xml version="1.0" standalone="no"?>
<!DOCTYPE svg PUBLIC "-//W3C//DTD SVG 20010904//EN"
 "http://www.w3.org/TR/2001/REC-SVG-20010904/DTD/svg10.dtd">
<svg version="1.0" xmlns="http://www.w3.org/2000/svg"
 width="1280.000000pt" height="699.000000pt" viewBox="0 0 1280.000000 699.000000"
 preserveAspectRatio="xMidYMid meet">
<metadata>
Created by potrace 1.16, written by Peter Selinger 2001-2019
</metadata>
<g transform="translate(0.000000,699.000000) scale(0.100000,-0.100000)"
fill="#000000" stroke="none">
<path d="M0 3495 l0 -3495 4308 0 c3848 0 4304 2 4278 15 -64 34 -166 113
-247 194 -114 113 -159 183 -194 299 -21 69 -19 89 10 96 14 4 25 11 25 16 0
6 17 10 38 10 20 0 55 5 77 11 22 7 47 12 55 13 8 1 40 7 70 14 145 31 486 80
1455 208 370 49 1540 194 1725 215 63 7 117 16 120 20 3 4 48 9 100 12 52 3
115 8 140 11 25 3 167 19 315 36 149 17 284 33 300 36 47 9 75 32 75 60 0 48
-100 73 -370 91 -63 4 -121 7 -127 6 -16 -1 -17 -9 12 78 80 231 124 537 111
769 -5 104 -3 122 18 190 14 41 25 68 25 59 1 -9 -6 -36 -15 -60 -12 -34 -16
-92 -19 -259 -1 -118 -5 -242 -9 -275 -5 -40 -4 -55 2 -46 12 16 50 14 445
-27 l77 -8 0 2603 0 2603 -6400 0 -6400 0 0 -3495z m8982 801 c176 -22 444
-91 476 -123 17 -16 69 -44 79 -42 10 2 352 -385 346 -391 -2 -2 -20 13 -38
35 -40 46 -47 39 -10 -9 l25 -33 -62 -42 c-35 -23 -69 -39 -78 -36 -9 3 -25
-2 -36 -11 -18 -14 -18 -15 4 -4 13 7 26 9 29 6 5 -5 -8 -11 -181 -83 -212
-87 -886 -323 -924 -323 -8 0 -62 162 -62 182 0 4 19 1 41 -7 23 -8 65 -15 93
-15 61 0 276 37 434 75 123 29 133 37 181 132 33 65 32 66 -66 60 -79 -5 -82
-5 -28 4 33 5 67 10 75 12 31 6 -94 57 -140 57 -53 0 -80 -16 -110 -65 l-22
-35 -96 1 c-147 2 -163 10 -67 36 44 12 101 27 128 33 28 6 71 28 107 54 33
25 75 48 93 53 51 12 -79 20 -374 22 l-257 1 -48 -33 c-56 -39 -131 -125 -140
-163 -4 -14 -2 -49 4 -78 22 -97 65 -357 60 -361 -2 -2 -23 -5 -47 -7 l-43 -3
-38 100 c-53 139 -96 231 -172 365 -81 144 -102 184 -91 177 4 -2 58 4 118 14
61 10 117 19 125 20 8 1 -1 4 -20 8 -19 3 183 6 450 5 507 0 560 -4 665 -48
19 -8 35 -12 35 -7 0 4 -25 47 -55 97 -31 49 -44 76 -31 60 30 -36 135 -212
189 -315 33 -65 57 -97 57 -78 0 7 -123 227 -146 262 l-16 25 81 0 80 0 81
-105 c45 -58 84 -105 87 -105 11 0 113 62 113 68 0 13 -114 159 -184 237 -38
42 -96 99 -130 126 -34 27 -67 54 -74 60 -18 15 -115 47 -207 69 -230 54 -441
75 -601 60 -115 -10 -267 -44 -272 -60 -2 -5 -9 -7 -16 -4 -8 3 -20 -1 -27 -9
-8 -7 -20 -12 -28 -9 -9 3 -11 0 -6 -8 5 -8 4 -11 -3 -7 -15 10 -43 -3 -35
-16 4 -6 1 -7 -7 -2 -8 5 -20 -1 -32 -16 -11 -13 -17 -18 -13 -12 11 23 -23 3
-39 -23 -9 -13 -22 -21 -30 -18 -8 3 -17 0 -22 -7 -5 -8 -3 -10 7 -5 8 4 -11
-17 -42 -46 -32 -29 -79 -78 -105 -109 -43 -49 -75 -71 -66 -46 1 5 -2 6 -8 2
-6 -3 -7 -11 -4 -17 5 -7 2 -8 -7 -3 -8 5 -11 5 -7 0 5 -5 -1 -15 -12 -22 -20
-14 -19 -39 1 -27 5 3 7 9 5 13 -3 4 4 12 15 19 26 16 24 7 -7 -34 -14 -18
-30 -31 -35 -28 -18 11 -59 -47 -126 -182 -38 -76 -77 -158 -86 -181 -12 -31
-23 -43 -37 -43 -25 0 -25 6 4 55 14 22 48 83 77 135 182 331 366 530 582 630
73 34 218 77 302 89 96 14 291 12 417 -3z m585 -16 c223 -58 421 -125 600
-204 51 -23 152 -52 275 -80 106 -24 258 -64 338 -89 80 -26 177 -55 215 -66
39 -11 59 -20 45 -20 -14 -1 -72 -12 -128 -25 l-104 -23 -226 107 c-390 185
-751 321 -1044 396 -97 24 -126 34 -100 34 6 0 64 -14 129 -30z m-1529 -522
c81 -138 212 -398 252 -503 13 -33 28 -66 33 -72 13 -17 -32 -33 -86 -32 -38
1 -37 2 16 9 63 8 94 24 37 19 -43 -4 -78 6 -310 92 -102 37 -212 76 -245 85
-33 10 -64 21 -69 25 -15 13 206 409 229 409 4 0 3 -4 0 -10 -7 -11 -3 -12 19
-4 8 3 12 12 9 20 -3 8 -10 11 -16 7 -6 -4 -7 -1 -2 7 10 17 25 -3 119 -161
87 -144 143 -260 181 -376 24 -70 47 -104 61 -90 2 2 -14 55 -35 118 -43 126
-129 292 -230 444 -36 55 -68 104 -69 108 -4 7 16 37 24 37 1 0 38 -60 82
-132z m3109 -75 c-20 -2 -35 -8 -33 -12 3 -5 -7 -6 -22 -5 -15 2 -21 1 -13 -2
8 -4 -115 -39 -275 -79 -634 -159 -1552 -438 -2224 -678 -124 -44 -231 -80
-237 -80 -7 0 -13 -4 -13 -9 0 -4 -5 -8 -10 -8 -7 0 -7 6 0 19 17 33 13 163
-7 190 l-16 24 89 -7 c86 -6 241 7 256 23 4 4 -1 38 -12 76 -11 39 -20 75 -20
81 0 6 19 14 43 18 23 4 258 47 522 97 986 185 973 183 1189 236 295 72 593
120 756 120 36 0 48 -2 27 -4z m-3515 -452 c103 -21 170 -45 268 -97 91 -48
130 -81 47 -40 -95 47 -190 69 -280 64 -60 -3 -87 -10 -148 -40 -41 -21 -100
-59 -133 -85 -78 -63 -65 -58 -196 -89 -295 -69 -678 -214 -1115 -424 -160
-77 -179 -83 -348 -119 -107 -23 -173 -33 -165 -25 7 7 85 63 173 124 88 62
159 116 158 121 -2 5 0 8 5 8 16 -3 28 2 52 22 14 11 19 17 11 13 -9 -4 -12
-3 -7 4 4 6 12 9 19 7 7 -3 23 5 37 16 14 11 19 18 13 14 -31 -16 -8 5 40 37
101 67 111 73 104 61 -5 -7 -6 -13 -3 -13 3 0 76 41 163 91 220 127 424 223
578 274 63 21 187 57 215 62 200 38 370 43 512 14z m3264 -563 c-57 -222 -99
-364 -135 -459 -19 -51 -29 -61 -94 -104 -88 -59 -253 -146 -407 -215 -126
-57 -115 -55 -905 -190 -486 -83 -977 -170 -1023 -182 -23 -6 -45 -8 -48 -5
-3 2 28 12 68 21 86 20 844 157 1383 251 428 74 444 79 720 215 210 104 268
147 296 220 31 83 92 290 146 495 26 101 49 180 51 175 2 -5 -22 -105 -52
-222z m-4766 178 c0 -7 -415 -292 -444 -304 -35 -16 -52 -4 -65 44 -13 49 0
88 30 92 19 2 28 -3 37 -23 7 -14 12 -32 12 -40 0 -18 29 -9 48 14 8 10 16 12
20 6 4 -6 12 -11 17 -12 6 0 84 50 174 113 159 111 171 118 171 110z m5874
-183 l39 -6 -31 -16 c-17 -9 -49 -44 -70 -77 -41 -63 -142 -246 -142 -257 0
-3 16 -3 35 0 25 4 36 2 38 -8 20 -72 21 -73 77 -91 30 -9 74 -17 97 -17 37
-1 42 2 52 30 6 18 11 45 11 62 0 27 -2 29 -32 25 -18 -3 -40 -8 -49 -12 -14
-6 -18 5 -28 73 -7 45 -19 104 -27 131 -13 44 -13 53 1 79 8 16 20 33 26 37 8
4 9 3 5 -5 -4 -6 2 -24 13 -40 22 -30 81 -200 81 -231 0 -10 4 -21 9 -24 18
-12 21 -100 5 -149 l-16 -50 -57 6 c-31 4 -87 17 -126 30 -57 19 -85 22 -152
19 -81 -4 -81 -4 -85 -33 -6 -36 -3 -38 69 -49 32 -6 69 -18 83 -28 14 -10 50
-21 80 -25 30 -3 76 -9 103 -13 l47 -7 0 36 c0 65 27 53 69 -30 15 -30 21 -60
20 -105 -1 -96 -12 -111 -28 -36 -7 34 -17 70 -22 80 -11 21 -60 35 -155 44
l-72 6 -7 -31 c-8 -37 -28 -40 -86 -10 -23 11 -42 19 -44 17 -2 -2 22 -70 52
-153 30 -82 59 -174 64 -204 5 -29 14 -62 20 -72 7 -14 0 -36 -30 -96 -22 -43
-40 -75 -41 -70 0 4 16 39 35 77 37 74 39 80 28 80 -5 0 -24 -32 -43 -70 -19
-39 -40 -70 -47 -70 -9 0 -5 13 10 38 13 20 34 56 46 80 l22 43 -31 111 c-33
118 -111 311 -137 340 -21 24 -40 23 -48 -2 -3 -11 -10 -20 -15 -20 -4 0 3 26
16 58 13 32 27 83 32 115 8 52 1 201 -13 282 -4 22 -3 25 4 10 7 -18 10 -15
21 18 8 20 18 37 22 37 4 0 8 21 9 48 1 37 4 28 13 -43 7 -49 16 -100 20 -112
5 -16 -1 -30 -24 -56 -23 -26 -30 -44 -30 -73 l1 -39 34 39 c39 44 109 177
149 281 46 121 44 118 69 111 12 -3 40 -9 61 -13z m-10669 -89 c0 -55 4 -81
13 -84 7 -3 -15 -21 -50 -42 -35 -20 -65 -34 -67 -32 -3 2 -5 20 -6 40 -1 31
1 33 12 18 7 -10 13 -21 13 -26 0 -4 4 -8 9 -8 5 0 7 43 4 100 -7 113 1 133
45 121 26 -7 27 -9 27 -87z m6241 -17 c-24 -114 -34 -131 -80 -143 -27 -6 -28
-5 -22 22 3 16 8 52 12 79 5 43 14 58 57 102 28 29 52 51 53 50 2 -1 -7 -51
-20 -110z m-2159 16 c23 4 24 3 21 -50 l-3 -55 -65 -29 c-75 -34 -157 -88
-165 -108 -6 -14 12 -14 260 6 l80 6 -134 -116 -134 -116 -66 -6 c-120 -12
-314 -36 -526 -65 -239 -33 -444 -54 -450 -48 -3 2 149 82 336 177 342 172
342 172 363 152 19 -17 30 -18 126 -12 l105 8 -100 2 -101 1 -59 61 -60 61 62
-47 c63 -48 63 -48 135 -46 58 2 90 9 158 38 47 20 86 37 88 38 1 1 9 38 18
82 l16 81 36 -10 c19 -5 46 -8 59 -5z m-4452 -213 c-20 -39 -44 -93 -55 -121
l-20 -51 29 -47 29 -48 -15 -134 c-16 -147 -12 -371 10 -494 8 -45 10 -124 7
-220 -5 -140 -6 -146 -14 -83 -4 37 -4 103 0 150 7 61 5 99 -5 143 -17 75 -20
483 -3 570 10 58 10 62 -19 108 -16 27 -29 54 -29 60 0 16 107 237 115 237 3
0 -11 -32 -30 -70z m6469 -50 c29 -36 59 -129 87 -273 10 -56 19 -103 19 -104
0 -9 39 -1 57 12 19 14 21 13 16 -4 -3 -11 -11 -17 -17 -15 -17 6 -40 -22 -30
-37 5 -9 10 -8 19 4 10 14 12 12 13 -15 2 -61 14 -106 33 -124 10 -9 19 -23
19 -30 0 -11 -8 -10 -35 3 -24 12 -35 23 -35 39 0 55 -12 84 -36 84 -14 0 -28
-9 -35 -22 -6 -13 -25 -39 -43 -58 -17 -19 -21 -26 -8 -16 12 11 22 14 22 9 0
-12 -26 -25 -50 -27 -8 -1 -15 -6 -15 -13 0 -17 -76 -72 -101 -73 -12 0 -33 9
-48 21 -24 19 -26 26 -26 102 l0 81 51 -72 50 -72 31 16 c46 24 124 100 142
139 15 32 15 42 -3 147 -11 62 -32 146 -47 188 l-26 75 -62 -3 c-56 -3 -63 -2
-61 15 5 42 17 53 55 53 30 0 44 -6 64 -30z m554 -22 c109 -30 109 -40 -3 -42
-39 -1 -40 -2 -101 -101 -103 -168 -144 -218 -184 -226 -19 -4 -36 -6 -37 -5
-2 2 19 39 45 84 27 44 75 133 107 196 36 71 65 116 75 116 8 0 52 -10 98 -22z
m1652 -355 c-8 -3 -105 -37 -215 -75 -213 -75 -337 -127 -318 -135 6 -2 123
12 259 32 136 20 252 34 258 32 6 -2 -11 -7 -39 -11 -27 -4 -212 -37 -410 -72
-198 -36 -448 -80 -555 -99 -107 -20 -206 -38 -218 -41 -16 -3 -23 -1 -20 7 4
11 1221 366 1258 367 13 0 13 0 0 -5z m2458 -174 c12 -8 22 -17 22 -20 0 -16
-52 -165 -71 -201 l-21 -41 -30 30 -30 31 27 67 c15 37 29 84 31 104 3 23 -6
5 -25 -48 -16 -46 -34 -88 -40 -94 -18 -18 -14 9 8 51 10 20 26 63 35 94 16
55 17 56 44 49 16 -5 38 -15 50 -22z m-4408 -96 c30 -20 107 -63 171 -95 64
-31 122 -65 130 -74 8 -9 -21 2 -64 24 -42 23 -96 47 -119 54 -39 12 -41 11
-63 -16 -17 -21 -29 -27 -44 -23 -16 4 -22 0 -25 -16 -3 -12 -11 -49 -18 -82
l-14 -60 -19 68 c-14 53 -26 75 -56 101 -20 19 -37 36 -36 38 1 2 -7 -5 -18
-15 -30 -26 -98 -78 -116 -88 -12 -6 -25 -2 -44 13 -24 19 -26 19 -15 2 9 -15
7 -33 -13 -94 -23 -66 -26 -71 -32 -47 -10 37 23 167 49 195 11 13 48 44 80
68 43 32 62 42 70 34 8 -8 7 -13 -4 -20 -11 -7 -7 -10 16 -10 26 0 37 -8 64
-47 18 -27 30 -40 26 -31 -3 9 -11 45 -18 78 -10 52 -10 63 2 70 27 17 55 10
110 -27z m-3117 -746 l650 3 61 34 c34 19 126 68 206 108 80 41 195 101 255
133 61 32 107 55 104 51 -13 -15 -242 -143 -434 -242 l-200 -104 -650 0 -651
0 -37 193 c-20 105 -37 199 -36 207 1 8 19 -75 41 -185 l41 -200 650 2z m3292
271 c-10 -18 -33 -50 -53 -70 -20 -21 -33 -40 -30 -43 5 -5 83 76 106 111 7
10 5 3 -4 -16 -9 -19 -32 -54 -50 -77 -31 -37 -33 -44 -22 -67 6 -14 14 -26
17 -26 4 0 33 42 64 93 39 61 57 99 54 115 -3 15 1 22 12 22 22 0 61 -28 61
-43 0 -22 -147 -237 -162 -237 -2 0 -27 31 -56 68 -49 65 -63 90 -43 78 10 -7
69 56 96 102 25 41 31 34 10 -10z"/>
</g>
</svg>
